<?xml version="1.0" encoding="utf-8"?>
<!-- Generator: Adobe Illustrator 24.3.0, SVG Export Plug-In . SVG Version: 6.00 Build 0)  -->
<svg version="1.1" id="Ebene_1" xmlns="http://www.w3.org/2000/svg" xmlns:xlink="http://www.w3.org/1999/xlink" x="0px" y="0px"
	 viewBox="0 0 567 350" style="enable-background:new 0 0 567 350;" xml:space="preserve">
<style type="text/css">
	.st0{fill:#FFFFFF;}
	.st1{fill:#7397FF;}
</style>
<path d="M285.6,202.69"/>
<polyline class="st0" points="292.6,202.69 222.77,202.69 304.56,81.11 318.62,81.11 336.01,-0.43 262.57,-0.43 0.12,349.67 
	121.21,349.67 165.64,285.21 275.07,285.21 293,203 "/>
<polygon class="st1" points="549.25,82.09 566.58,-0.43 349.01,-0.43 331.62,81.11 331.72,81.11 317.24,148.48 288.07,285.21 
	288.26,285.21 274.59,349.67 500.66,349.67 518.24,267.15 397.64,267.15 408.62,215.63 514.09,215.63 531.67,133.11 426.2,133.11 
	436.7,82.09 "/>
<g>
</g>
<g>
</g>
<g>
</g>
<g>
</g>
<g>
</g>
<g>
</g>
<g>
</g>
<g>
</g>
<g>
</g>
<g>
</g>
<g>
</g>
<g>
</g>
<g>
</g>
<g>
</g>
<g>
</g>
</svg>
