<?xml version="1.0" encoding="utf-8"?>
<!-- Generator: Adobe Illustrator 24.3.0, SVG Export Plug-In . SVG Version: 6.00 Build 0)  -->
<svg version="1.1" xmlns="http://www.w3.org/2000/svg" xmlns:xlink="http://www.w3.org/1999/xlink" x="0px" y="0px"
	 viewBox="0 0 1038.52 214.28" style="enable-background:new 0 0 1038.52 214.28;" xml:space="preserve">
<style type="text/css">
	.st0{display:none;}
	.st1{display:inline;}
</style>
<g id="Ebene_1" class="st0">
</g>
<g id="Ebene_2">
	<g>
		<path d="M123.34,3.97h19.19l35.16,210.06h-19.78l-10.11-62.26H58.15l-36.62,62.26H0L123.34,3.97z M145.02,134.34l-14.36-93.6
			c-0.68-5.27-1.03-10.3-1.03-15.09h-0.59l-1.32,3.22c-0.59,1.56-1.95,4.37-4.1,8.42c-2.15,4.05-20.75,36.4-55.81,97.05H145.02z"/>
		<path d="M242.66,3.97h101.95l-3.66,17.43h-82.47l-16.7,78.37h76.47l-3.66,17.43h-76.61l-16.85,79.39h87.45l-3.52,17.43H198.27
			L242.66,3.97z"/>
		<path d="M334.73,184.88c6.25,4.3,13.96,7.94,23.14,10.91c9.18,2.98,18.31,4.47,27.39,4.47c14.84,0,26.32-3.34,34.42-10.03
			c8.1-6.69,12.16-15.99,12.16-27.91c0-8.3-2.37-15.75-7.11-22.34c-4.74-6.59-13.7-14.67-26.88-24.24
			c-13.28-9.57-22.68-18.82-28.2-27.76c-5.52-8.94-8.28-18.82-8.28-29.66c0-16.99,6.32-30.88,18.97-41.67
			c12.65-10.79,28.98-16.19,49-16.19c15.13,0,30.03,2.88,44.68,8.64l-3.81,19.78c-11.62-7.42-25.78-11.13-42.48-11.13
			c-13.87,0-25.03,3.57-33.47,10.69c-8.45,7.13-12.67,16.41-12.67,27.83c0,9.08,2.24,16.9,6.74,23.44
			c4.49,6.54,12.94,14.36,25.34,23.44c14.55,10.55,24.56,20.02,30.03,28.42c5.47,8.4,8.2,17.82,8.2,28.27
			c0,11.33-2.71,21.39-8.13,30.18s-13.23,15.6-23.44,20.43c-10.21,4.83-22.29,7.25-36.25,7.25c-8.99,0-18.12-1.12-27.39-3.37
			c-9.28-2.25-17.72-5.37-25.34-9.38L334.73,184.88z"/>
		<path d="M558.05,21.4h-60.79l3.66-17.43h140.33l-3.81,17.43h-60.06l-40.72,192.63h-19.48L558.05,21.4z"/>
		<path d="M667.27,3.97h19.48l-20.07,94.34h114.26l20.21-94.34h19.34l-44.53,210.06h-19.34l20.65-98h-114.4l-20.51,98h-19.48
			L667.27,3.97z"/>
		<path d="M865.54,3.97h19.48l-44.53,210.06h-19.34L865.54,3.97z"/>
		<path d="M984.57,3.97h19.19l35.16,210.06h-19.78l-10.11-62.26h-89.65l-36.62,62.26h-21.53L984.57,3.97z M1006.25,134.34
			l-14.36-93.6c-0.68-5.27-1.03-10.3-1.03-15.09h-0.59l-1.32,3.22c-0.59,1.56-1.96,4.37-4.1,8.42c-2.15,4.05-20.75,36.4-55.81,97.05
			H1006.25z"/>
	</g>
</g>
</svg>
